<?xml version="1.0" encoding="UTF-8"?>
<svg xmlns="http://www.w3.org/2000/svg" width="61" height="40" viewBox="0 0 61 40" fill="none">
  <path d="M58.0851 16.3607H34.0047C33.6826 16.3684 33.3623 16.3098 33.0626 16.1887C32.7629 16.0673 32.4899 15.8858 32.2595 15.6549C32.0292 15.4238 31.8462 15.1478 31.7211 14.843C31.5961 14.5384 31.5317 14.211 31.5317 13.8804C31.5317 13.5497 31.5961 13.2225 31.7211 12.9177C31.8462 12.6131 32.0292 12.337 32.2595 12.106C32.4899 11.8749 32.7629 11.6934 33.0626 11.5722C33.3623 11.451 33.6826 11.3925 34.0047 11.4001H58.0838C58.4058 11.3925 58.7261 11.451 59.0258 11.5722C59.3255 11.6934 59.5985 11.8749 59.8289 12.106C60.0593 12.337 60.2422 12.6131 60.3673 12.9177C60.4923 13.2225 60.5567 13.5497 60.5567 13.8804C60.5567 14.211 60.4923 14.5384 60.3673 14.843C60.2422 15.1478 60.0593 15.4238 59.8289 15.6549C59.5985 15.8858 59.3255 16.0673 59.0258 16.1887C58.7261 16.3098 58.4071 16.3684 58.0851 16.3607Z" fill="#32CCCB"></path>
  <path d="M26.4962 28.6024H2.41566C1.77476 28.6024 1.16012 28.3409 0.706935 27.8759C0.25375 27.4107 -0.000854492 26.7798 -0.000854492 26.122C-0.000854492 25.4641 0.25375 24.8333 0.706935 24.3681C1.16012 23.9029 1.77476 23.6416 2.41566 23.6416H26.4949C27.1359 23.6416 27.7504 23.9029 28.2036 24.3681C28.6568 24.8333 28.9115 25.4641 28.9115 26.122C28.9115 26.7798 28.6568 27.4107 28.2036 27.8759C27.7504 28.3409 27.1372 28.6024 26.4962 28.6024Z" fill="#32CCCB"></path>
  <path d="M30.2238 39.9997C26.37 39.9994 22.6029 38.8263 19.3987 36.6285C16.1948 34.4308 13.6976 31.3073 12.223 27.6529C10.7484 23.9985 10.3627 19.9773 11.1147 16.0979C11.8666 12.2184 13.7225 8.65502 16.4477 5.8582C19.1727 3.06136 22.6445 1.15675 26.4242 0.385178C30.2039 -0.386395 34.1215 0.00971058 37.6818 1.52346C41.2422 3.0372 44.2853 5.60057 46.4263 8.88941C48.5673 12.1783 49.7099 16.0449 49.7099 20.0003C49.7029 25.3025 47.6474 30.3853 43.9945 34.1344C40.3418 37.8834 35.3895 39.9929 30.2238 39.9997ZM30.2238 4.96031C27.326 4.96058 24.4934 5.84277 22.0841 7.49533C19.6748 9.14791 17.797 11.4967 16.6883 14.2445C15.5793 16.9925 15.2894 20.0162 15.8547 22.9333C16.4202 25.8504 17.8156 28.5299 19.8646 30.633C21.9137 32.7362 24.5242 34.1684 27.3662 34.7487C30.2083 35.329 33.1543 35.0313 35.8315 33.8932C38.5087 32.7552 40.797 30.8279 42.4071 28.355C44.0171 25.882 44.8767 22.9745 44.8768 20.0003C44.8729 16.0127 43.3278 12.1895 40.5806 9.36959C37.8335 6.54975 34.109 4.96484 30.2238 4.96031Z" fill="#90D04F"></path>
</svg>
